<?xml version="1.0" standalone="no"?>
<!DOCTYPE svg PUBLIC "-//W3C//DTD SVG 20010904//EN"
 "http://www.w3.org/TR/2001/REC-SVG-20010904/DTD/svg10.dtd">
<svg version="1.0" xmlns="http://www.w3.org/2000/svg"
 width="351.000000pt" height="283.000000pt" viewBox="0 0 351.000000 283.000000"
 preserveAspectRatio="xMidYMid meet">

<g transform="translate(0.000000,283.000000) scale(0.100000,-0.100000)"
fill="#000000" stroke="none">
<path d="M86 2673 c26 -43 82 -141 127 -218 104 -181 157 -265 167 -265 15 0
23 -60 10 -75 -6 -8 -30 -18 -53 -24 -36 -8 -38 -9 -12 -9 38 -1 188 25 157
27 -12 0 -21 7 -20 14 2 6 -3 11 -10 9 -8 -1 -11 2 -7 7 7 12 -134 226 -142
217 -3 -3 12 -32 34 -63 54 -78 61 -93 32 -63 -24 24 -83 117 -108 170 -11 23
-10 22 15 -5 14 -16 23 -23 18 -15 -16 31 -244 370 -249 370 -3 0 16 -35 41
-77z"/>
<path d="M3242 2428 c-104 -156 -192 -289 -196 -296 -6 -10 -2 -13 14 -10 13
1 24 11 26 20 2 18 72 138 80 138 6 0 -33 -76 -58 -115 l-20 -30 22 25 c12 13
40 56 62 95 48 84 236 401 256 433 8 12 12 22 8 22 -3 0 -91 -127 -194 -282z"/>
<path d="M1770 2183 c9 -24 16 -30 31 -26 11 3 18 6 17 7 -2 0 -15 12 -31 25
l-27 25 10 -31z"/>
<path d="M1825 2150 c-3 -5 -1 -10 4 -10 6 0 11 5 11 10 0 6 -2 10 -4 10 -3 0
-8 -4 -11 -10z"/>
<path d="M1884 2139 c-16 -4 32 -6 106 -6 134 0 131 4 -6 9 -40 2 -85 0 -100
-3z"/>
<path d="M1770 2131 c0 -12 39 -25 48 -16 7 7 -17 25 -35 25 -7 0 -13 -4 -13
-9z"/>
<path d="M3100 2122 c0 -8 -21 -12 -57 -13 -93 -1 -21 -17 105 -23 90 -4 97
-4 48 4 -32 5 -67 17 -78 26 -11 10 -18 12 -18 6z"/>
<path d="M1774 2101 c9 -14 -102 -23 -126 -10 -20 11 -113 8 -193 -5 -16 -2
-145 -7 -285 -11 -352 -8 -761 -36 -844 -57 -47 -11 -75 5 -35 21 13 5 19 10
12 10 -37 2 -54 -24 -31 -47 6 -6 12 -20 13 -29 2 -24 52 -247 78 -348 31
-121 47 -133 250 -178 89 -20 310 -66 490 -102 181 -36 388 -79 460 -96 73
-17 159 -31 192 -31 34 0 151 20 270 47 481 106 849 182 962 200 46 7 113 50
138 89 9 13 20 52 26 87 16 109 69 333 85 362 15 26 14 27 -11 37 -14 6 -50
10 -78 9 -43 -1 -48 -3 -27 -10 19 -6 14 -7 -20 -4 -25 2 -74 7 -110 10 -76 6
-463 22 -770 31 -118 4 -218 8 -221 10 -3 2 -51 6 -105 9 -54 4 -105 8 -112
11 -7 2 -11 0 -8 -5z m1446 -75 c0 -11 -19 -15 -25 -6 -3 5 1 10 9 10 9 0 16
-2 16 -4z m-1856 -66 c14 -5 30 -18 36 -30 9 -17 6 -25 -19 -50 -25 -26 -37
-30 -84 -30 -66 0 -86 17 -69 55 11 23 9 25 -13 25 -13 0 -27 5 -31 11 -10 17
-152 4 -243 -21 -80 -23 -139 -49 -188 -87 -40 -29 -41 -40 -7 -53 22 -9 29
-6 57 23 38 40 102 83 137 91 14 4 3 -5 -25 -20 -171 -90 -190 -235 -40 -300
32 -14 76 -18 220 -21 99 -2 186 -5 193 -8 8 -3 24 -2 38 1 22 6 23 7 8 35
-15 31 -50 39 -72 17 -9 -9 -12 -8 -12 5 0 43 99 119 170 131 65 10 340 16
340 7 0 -4 -21 -14 -46 -21 -40 -11 -51 -21 -82 -70 -24 -40 -45 -61 -68 -69
-18 -6 -36 -10 -41 -9 -4 1 -20 -6 -35 -16 -45 -30 -83 -33 -385 -35 -239 -2
-302 1 -364 15 -41 9 -85 22 -98 29 -23 12 -22 13 22 19 52 8 56 14 27 41 -16
14 -29 16 -69 11 -48 -6 -51 -5 -57 18 -15 60 59 167 147 212 96 48 206 82
304 94 91 11 320 11 349 0z m-954 -26 c0 -2 -7 -4 -15 -4 -8 0 -15 4 -15 10 0
5 7 7 15 4 8 -4 15 -8 15 -10z m683 -11 c-7 -2 -19 -2 -25 0 -7 3 -2 5 12 5
14 0 19 -2 13 -5z m1662 -110 c16 -16 16 -18 -4 -34 -26 -21 -26 -35 0 -93 24
-55 20 -76 -15 -76 -13 0 -38 -13 -56 -30 -26 -24 -29 -31 -16 -36 9 -3 30 -1
47 5 38 13 169 15 169 2 0 -25 -33 -32 -144 -29 -64 1 -116 6 -116 10 0 4 -7
8 -16 8 -8 0 -12 -4 -9 -10 4 -6 -26 -10 -82 -10 l-88 1 24 19 c18 16 38 20
97 20 93 0 92 -2 83 132 -2 24 -7 34 -13 29 -65 -48 -95 -75 -91 -82 3 -4 0
-11 -6 -15 -8 -4 -9 -3 -5 4 11 18 -1 14 -44 -14 -37 -25 -56 -44 -27 -28 9 5
9 4 1 -5 -6 -7 -29 -17 -50 -22 -22 -5 -46 -12 -54 -14 -63 -19 -106 -25 -182
-25 -90 0 -122 6 -112 21 3 5 9 7 13 4 5 -2 16 4 26 15 20 22 7 27 -26 10 -10
-6 -19 -8 -19 -4 0 17 86 144 97 144 7 0 13 4 13 9 0 4 -35 9 -79 10 l-79 2
-25 -46 c-15 -25 -24 -52 -21 -59 6 -16 -13 -31 -50 -40 -20 -5 -26 -10 -17
-15 19 -12 -42 -34 -70 -26 -13 4 -19 3 -15 -3 10 -16 -32 -22 -159 -22 -88 0
-116 3 -108 11 15 15 73 22 73 9 0 -6 7 -10 17 -10 15 0 15 2 0 18 -15 16 -10
17 92 17 99 0 111 2 147 26 22 14 52 45 68 68 28 40 28 42 11 55 -18 13 -18
14 4 25 13 7 20 15 18 18 -3 2 -15 -1 -27 -7 -15 -8 -25 -9 -33 -1 -16 16 17
57 54 65 41 8 83 -17 76 -45 -5 -17 3 -19 132 -21 l136 -3 -50 -23 c-37 -17
-59 -36 -82 -72 -18 -28 -33 -57 -33 -65 0 -9 -11 -21 -25 -27 -14 -6 -25 -15
-25 -20 0 -5 10 -3 23 4 12 6 70 15 128 18 123 8 188 33 299 115 36 27 66 50
68 51 2 1 -1 12 -8 23 -10 19 -6 24 37 51 53 34 103 39 128 13z m319 -138 c-4
-8 -8 -15 -10 -15 -2 0 -4 7 -4 15 0 8 4 15 10 15 5 0 7 -7 4 -15z m-14 -50
c0 -8 -4 -15 -10 -15 -5 0 -7 7 -4 15 4 8 8 15 10 15 2 0 4 -7 4 -15z m-2626
-61 c3 -8 2 -12 -4 -9 -6 3 -10 10 -10 16 0 14 7 11 14 -7z m2616 6 c0 -5 -4
-10 -10 -10 -5 0 -10 5 -10 10 0 6 5 10 10 10 6 0 10 -4 10 -10z m-2585 -40
c3 -5 1 -10 -4 -10 -6 0 -11 5 -11 10 0 6 2 10 4 10 3 0 8 -4 11 -10z"/>
<path d="M1550 1719 c-25 -5 -56 -7 -70 -5 -14 3 -20 3 -13 0 8 -4 3 -13 -15
-29 -23 -20 -28 -21 -38 -8 -14 21 -48 3 -69 -37 -14 -28 -14 -29 14 -35 16
-3 35 -13 42 -21 6 -8 26 -14 43 -14 35 0 60 21 115 100 20 27 43 47 59 51 27
7 27 7 2 7 -14 0 -45 -4 -70 -9z"/>
<path d="M1975 1750 c3 -5 13 -10 21 -10 8 0 14 5 14 10 0 6 -9 10 -21 10 -11
0 -17 -4 -14 -10z"/>
<path d="M113 2054 c-22 -9 -14 -29 26 -68 l39 -38 31 23 c17 13 30 28 28 33
-9 26 -98 61 -124 50z m101 -52 c3 -5 -6 -14 -21 -21 -30 -14 -43 -3 -43 37 0
22 1 22 29 7 17 -8 32 -19 35 -23z"/>
<path d="M3038 2053 c12 -2 30 -2 40 0 9 3 -1 5 -23 4 -22 0 -30 -2 -17 -4z"/>
<path d="M3326 2045 c-53 -19 -73 -39 -57 -59 7 -8 9 -27 6 -43 -5 -26 -5 -27
5 -4 7 17 16 22 31 18 16 -4 19 -2 14 13 -4 13 1 22 15 30 12 6 24 9 28 6 3
-3 0 -6 -6 -6 -7 0 -12 -4 -12 -10 0 -18 19 -10 36 15 13 20 14 28 4 40 -15
18 -15 18 -64 0z"/>
<path d="M3276 1855 c-9 -26 -7 -32 5 -12 6 10 9 21 6 23 -2 3 -7 -2 -11 -11z"/>
<path d="M281 1794 c0 -11 3 -14 6 -6 3 7 2 16 -1 19 -3 4 -6 -2 -5 -13z"/>
<path d="M291 1760 c0 -8 8 -46 18 -85 11 -38 19 -63 20 -55 0 8 -8 47 -18 85
-11 39 -19 63 -20 55z"/>
<path d="M333 1565 c2 -22 7 -47 11 -56 5 -12 1 -18 -16 -23 l-23 -6 25 -20
c30 -25 106 -65 140 -74 20 -6 22 -5 10 4 -18 14 -31 17 210 -42 96 -23 186
-49 199 -57 13 -8 73 -90 134 -181 60 -91 114 -167 119 -169 14 -5 15 -6 -114
186 -100 149 -144 224 -107 182 8 -8 27 -21 43 -28 27 -11 28 -11 15 5 -12 16
-12 17 4 11 10 -4 30 -7 43 -7 13 0 24 -6 24 -13 0 -8 9 -13 19 -13 11 1 31
-15 48 -36 88 -114 195 -238 203 -233 5 3 18 -6 29 -21 14 -18 27 -25 47 -22
l28 3 -28 30 c-16 17 -22 21 -15 10 13 -18 13 -19 -3 -6 -10 7 -15 17 -12 22
3 5 -27 50 -67 100 -39 49 -69 92 -66 96 7 6 277 -41 362 -64 33 -9 74 -27 91
-39 17 -13 34 -20 38 -17 3 4 6 -2 6 -13 0 -16 2 -17 10 -4 8 13 10 12 10 -2
0 -25 13 -22 41 8 13 15 46 37 72 49 27 13 43 25 35 28 -7 2 -3 2 10 0 13 -2
49 3 80 11 31 9 89 20 129 26 39 5 78 12 86 16 35 13 22 -20 -43 -111 -39 -53
-68 -101 -64 -106 3 -5 0 -8 -6 -7 -6 2 -18 -7 -26 -18 -14 -20 -13 -21 11
-17 14 3 25 9 25 14 0 5 17 20 38 33 41 25 235 240 226 249 -3 3 4 11 16 17
12 6 24 9 27 6 3 -3 -34 -59 -83 -126 -49 -66 -99 -136 -112 -155 -22 -35 -22
-35 -2 -35 12 0 18 5 15 10 -3 6 -2 10 4 10 14 0 71 75 76 100 2 11 34 59 70
105 36 47 63 90 60 95 -4 6 15 10 51 10 l56 0 -18 -27 c-113 -173 -195 -305
-191 -309 4 -5 146 208 188 283 29 51 20 48 299 109 222 48 316 82 361 130
l22 24 -31 0 c-30 0 -31 0 -16 28 21 40 17 62 -5 27 -10 -16 -28 -38 -39 -49
-12 -10 -19 -22 -16 -27 10 -17 -44 -38 -146 -58 -58 -11 -151 -32 -206 -45
-171 -43 -384 -86 -412 -84 -15 1 -58 -9 -97 -21 -38 -13 -85 -23 -102 -24
-18 -1 -33 -4 -33 -8 0 -7 -48 -16 -220 -40 -47 -6 -91 -17 -99 -23 -11 -8
-13 -8 -7 2 4 6 2 12 -3 12 -10 0 -16 -33 -13 -72 1 -10 -3 -18 -8 -18 -9 0
-12 12 -13 65 0 16 -1 17 -4 3 -3 -10 -9 -18 -15 -18 -6 0 -5 -7 3 -17 13 -16
12 -17 -3 -4 -10 7 -15 17 -12 22 3 5 0 9 -6 9 -6 0 -9 4 -6 9 7 11 -49 25
-64 16 -5 -3 -56 5 -112 19 -57 13 -173 39 -258 56 -85 17 -207 44 -270 60
-63 15 -205 47 -315 70 -216 45 -279 65 -271 87 3 8 -6 24 -20 36 -13 12 -31
40 -40 62 l-14 40 3 -40z m1057 -364 c0 -4 -11 -6 -25 -3 -14 2 -25 6 -25 8 0
2 11 4 25 4 14 0 25 -4 25 -9z"/>
<path d="M286 1515 c4 -8 8 -15 10 -15 2 0 4 7 4 15 0 8 -4 15 -10 15 -5 0 -7
-7 -4 -15z"/>
<path d="M1171 1100 c61 -82 115 -153 121 -156 7 -5 8 -2 3 7 -16 25 -226 299
-231 299 -2 0 46 -67 107 -150z"/>
<path d="M870 1080 c0 -5 5 -10 11 -10 5 0 7 5 4 10 -3 6 -8 10 -11 10 -2 0
-4 -4 -4 -10z"/>
<path d="M2585 1081 c-3 -5 -1 -12 5 -16 5 -3 10 1 10 9 0 18 -6 21 -15 7z"/>
<path d="M2675 1080 c11 -5 124 -8 250 -8 163 1 211 3 165 9 -87 10 -441 9
-415 -1z"/>
<path d="M347 1043 c-20 -20 16 -23 252 -23 221 0 260 2 265 15 5 13 -27 15
-253 15 -142 0 -261 -3 -264 -7z"/>
<path d="M2610 1035 c21 -20 525 -24 525 -3 0 10 -55 14 -270 16 -238 2 -268
1 -255 -13z"/>
<path d="M301 1018 c7 -13 63 -94 126 -180 90 -125 120 -159 146 -167 18 -6
105 -10 197 -9 162 1 230 -5 230 -22 0 -4 13 -22 29 -39 l29 -31 161 0 160 0
183 -276 c166 -251 184 -274 196 -258 7 11 66 100 129 199 64 99 138 215 165
257 l50 78 159 0 c172 0 157 -4 208 60 19 25 20 25 208 28 103 2 192 8 197 13
6 5 -54 9 -158 9 -130 0 -167 3 -164 13 4 9 53 13 183 17 130 4 179 8 183 18
3 9 -34 12 -163 12 -108 0 -164 3 -160 10 4 6 75 10 180 10 105 0 176 4 180
10 4 7 -48 10 -149 10 -85 0 -161 3 -170 6 -45 17 2 24 168 24 113 0 187 4
191 10 4 6 -47 10 -147 10 -84 0 -163 3 -175 6 -58 16 -8 24 164 26 138 2 187
6 191 16 3 9 -37 12 -177 12 -111 0 -181 4 -181 10 0 6 77 11 197 12 146 2
197 6 201 16 3 9 -42 12 -201 12 l-205 0 -31 -35 c-17 -20 -31 -39 -31 -43 0
-5 -34 -55 -75 -113 -41 -57 -82 -119 -90 -136 l-16 -33 -674 0 c-370 0 -680
3 -689 6 -9 3 -16 11 -16 16 0 10 -118 185 -195 291 l-31 42 -208 3 c-165 2
-207 0 -204 -10 4 -10 54 -14 206 -16 123 -1 202 -6 202 -12 0 -6 -71 -10
-186 -10 -144 0 -185 -3 -182 -12 4 -10 54 -14 196 -16 176 -2 228 -10 170
-26 -13 -3 -92 -6 -176 -6 -100 0 -151 -4 -147 -10 4 -6 77 -10 185 -10 162 0
217 -8 174 -24 -9 -3 -88 -6 -177 -6 -116 0 -158 -3 -150 -11 7 -7 71 -10 184
-10 100 1 180 -3 189 -9 10 -7 -40 -10 -157 -10 -156 0 -210 -8 -167 -24 9 -3
89 -6 179 -6 162 0 195 -4 195 -21 0 -6 -81 -8 -192 -7 l-191 3 -109 150 c-60
83 -116 162 -124 178 -8 15 -19 27 -25 27 -6 0 -5 -9 2 -22z m1364 -588 l100
-131 28 33 c15 18 41 52 57 74 16 23 47 56 69 74 34 27 45 30 76 24 24 -4 34
-11 31 -19 -2 -7 -67 -110 -142 -229 l-138 -216 -69 107 c-38 60 -104 162
-148 228 l-79 120 50 22 c28 12 50 27 50 32 0 26 22 3 115 -119z m214 88 c-13
-18 -40 -55 -60 -83 -21 -27 -44 -62 -52 -77 l-14 -27 -65 92 c-81 114 -89
129 -52 95 16 -14 46 -33 68 -42 36 -15 39 -15 63 4 14 11 31 20 37 20 6 0 27
11 46 25 48 33 56 31 29 -7z"/>
<path d="M3075 903 c-54 -76 -114 -158 -133 -182 -23 -28 -29 -42 -19 -40 9 2
70 80 137 172 106 149 130 187 116 187 -2 0 -47 -62 -101 -137z"/>
<path d="M2640 988 c0 -17 36 -21 241 -22 163 -1 220 2 223 11 4 9 -50 13
-229 15 -129 2 -235 0 -235 -4z"/>
<path d="M366 980 c7 -7 91 -11 229 -11 138 0 222 4 229 11 7 7 -63 10 -229
10 -166 0 -236 -3 -229 -10z"/>
<path d="M900 964 c-48 -10 -52 -12 -29 -18 14 -4 47 -6 73 -4 45 3 47 4 30
18 -16 14 -27 14 -74 4z"/>
<path d="M2502 968 c-22 -22 -12 -28 47 -28 68 0 89 15 33 23 -20 3 -44 8 -52
11 -9 4 -21 1 -28 -6z"/>
<path d="M1260 767 c0 -82 4 -127 12 -135 7 -7 42 -12 85 -12 71 0 73 1 73 25
0 24 -3 25 -60 25 l-60 0 0 110 0 110 -25 0 -25 0 0 -123z"/>
<path d="M1522 878 c-7 -7 -12 -29 -12 -50 0 -21 -4 -38 -10 -38 -5 0 -10 -13
-10 -30 0 -16 5 -30 11 -30 8 0 10 -17 5 -55 l-6 -55 35 0 35 0 0 55 c0 54 0
55 30 55 30 0 30 -1 30 -55 0 -54 0 -55 30 -55 l30 0 0 116 c0 63 -5 124 -10
135 -9 16 -22 19 -78 19 -40 0 -73 -5 -80 -12z m108 -65 c0 -24 -4 -28 -30
-28 -26 0 -30 4 -30 28 0 23 4 27 30 27 26 0 30 -4 30 -27z"/>
<path d="M1779 843 c-1 -27 -2 -87 -3 -135 l-1 -88 28 0 c25 0 27 3 29 43 1
23 2 54 1 70 -1 15 1 27 3 27 2 0 20 -31 39 -70 32 -63 38 -70 65 -70 l31 0
-3 133 -3 132 -27 3 -28 3 0 -68 -1 -68 -36 68 c-31 59 -39 67 -64 67 -28 0
-29 -2 -30 -47z"/>
<path d="M2060 786 c0 -57 -3 -118 -6 -135 l-6 -31 71 0 c105 0 111 8 111 140
0 69 -4 110 -12 118 -7 7 -42 12 -85 12 l-73 0 0 -104z m110 -25 c0 -76 -1
-79 -25 -83 -13 -3 -27 -3 -30 0 -3 3 -5 41 -5 84 l0 78 30 0 30 0 0 -79z"/>
</g>
</svg>
